<svg width="135" height="185" viewBox="0 0 135 185" fill="none" xmlns="http://www.w3.org/2000/svg">
<g filter="url(#filter0_d)">
<path d="M75.88 133.8C74.28 133.8 73.48 133 73.48 131.4C73.48 129.8 74.28 129 75.88 129C77.48 129 78.28 129.8 78.28 131.4C78.28 133 77.48 133.8 75.88 133.8ZM75.88 142.44C74.28 142.44 73.48 141.64 73.48 140.04C73.48 138.44 74.28 137.64 75.88 137.64C77.48 137.64 78.28 138.44 78.28 140.04C78.28 141.64 77.48 142.44 75.88 142.44ZM75.88 151.32C74.28 151.32 73.48 150.52 73.48 148.92C73.48 147.32 74.28 146.52 75.88 146.52C77.48 146.52 78.28 147.32 78.28 148.92C78.28 150.52 77.48 151.32 75.88 151.32ZM75.88 159.96C74.28 159.96 73.48 159.16 73.48 157.56C73.48 155.96 74.28 155.16 75.88 155.16C77.48 155.16 78.28 155.96 78.28 157.56C78.28 159.16 77.48 159.96 75.88 159.96ZM75.88 177C74.28 177 73.48 176.2 73.48 174.6C73.48 173 74.28 172.2 75.88 172.2C77.48 172.2 78.28 173 78.28 174.6C78.28 176.2 77.48 177 75.88 177ZM75.88 58.44C74.28 58.44 73.48 57.64 73.48 56.04C73.48 54.44 74.28 53.64 75.88 53.64C77.48 53.64 78.28 54.44 78.28 56.04C78.28 57.64 77.48 58.44 75.88 58.44ZM75.88 68.52C74.28 68.52 73.48 67.72 73.48 66.12C73.48 64.52 74.28 63.72 75.88 63.72C77.48 63.72 78.28 64.52 78.28 66.12C78.28 67.72 77.48 68.52 75.88 68.52ZM75.88 77.64C74.28 77.64 73.48 76.84 73.48 75.24C73.48 73.64 74.28 72.84 75.88 72.84C77.48 72.84 78.28 73.64 78.28 75.24C78.28 76.84 77.48 77.64 75.88 77.64ZM75.88 96.84C74.28 96.84 73.48 96.04 73.48 94.44C73.48 92.84 74.28 92.04 75.88 92.04C77.48 92.04 78.28 92.84 78.28 94.44C78.28 96.04 77.48 96.84 75.88 96.84ZM75.88 105.72C74.28 105.72 73.48 104.92 73.48 103.32C73.48 101.72 74.28 100.92 75.88 100.92C77.48 100.92 78.28 101.72 78.28 103.32C78.28 104.92 77.48 105.72 75.88 105.72ZM75.88 115.32C74.28 115.32 73.48 114.52 73.48 112.92C73.48 111.32 74.28 110.52 75.88 110.52C77.48 110.52 78.28 111.32 78.28 112.92C78.28 114.52 77.48 115.32 75.88 115.32ZM75.88 124.44C74.28 124.44 73.48 123.64 73.48 122.04C73.48 120.44 74.28 119.64 75.88 119.64C77.48 119.64 78.28 120.44 78.28 122.04C78.28 123.64 77.48 124.44 75.88 124.44ZM78.52 30.84C76.92 30.84 76.12 30.04 76.12 28.44C76.12 26.84 76.92 26.04 78.52 26.04C80.12 26.04 80.92 26.84 80.92 28.44C80.92 30.04 80.12 30.84 78.52 30.84ZM76.36 39.72C74.76 39.72 73.96 38.92 73.96 37.32C73.96 35.72 74.76 34.92 76.36 34.92C77.96 34.92 78.76 35.72 78.76 37.32C78.76 38.92 77.96 39.72 76.36 39.72ZM75.88 48.84C74.28 48.84 73.48 48.04 73.48 46.44C73.48 44.84 74.28 44.04 75.88 44.04C77.48 44.04 78.28 44.84 78.28 46.44C78.28 48.04 77.48 48.84 75.88 48.84ZM75.88 87.24C74.28 87.24 73.48 86.44 73.48 84.84C73.48 83.24 74.28 82.44 75.88 82.44C77.48 82.44 78.28 83.24 78.28 84.84C78.28 86.44 77.48 87.24 75.88 87.24ZM67 72.84C65.4 72.84 64.6 72.04 64.6 70.44C64.6 68.84 65.4 68.04 67 68.04C68.6 68.04 69.4 68.84 69.4 70.44C69.4 72.04 68.6 72.84 67 72.84ZM84.04 72.84C82.44 72.84 81.64 72.04 81.64 70.44C81.64 68.84 82.44 68.04 84.04 68.04C85.64 68.04 86.44 68.84 86.44 70.44C86.44 72.04 85.64 72.84 84.04 72.84ZM75.88 168.36C74.28 168.36 73.48 167.56 73.48 165.96C73.48 164.36 74.28 163.56 75.88 163.56C77.48 163.56 78.28 164.36 78.28 165.96C78.28 167.56 77.48 168.36 75.88 168.36ZM82.12 21.96C80.52 21.96 79.72 21.16 79.72 19.56C79.72 17.96 80.52 17.16 82.12 17.16C83.72 17.16 84.52 17.96 84.52 19.56C84.52 21.16 83.72 21.96 82.12 21.96ZM87.88 14.76C86.28 14.76 85.48 13.96 85.48 12.36C85.48 10.76 86.28 9.95999 87.88 9.95999C89.48 9.95999 90.28 10.76 90.28 12.36C90.28 13.96 89.48 14.76 87.88 14.76ZM94.84 9.23999C93.24 9.23999 92.44 8.43999 92.44 6.83999C92.44 5.23999 93.24 4.43999 94.84 4.43999C96.44 4.43999 97.24 5.23999 97.24 6.83999C97.24 8.43999 96.44 9.23999 94.84 9.23999ZM103.24 6.12C101.64 6.12 100.84 5.31999 100.84 3.71999C100.84 2.11999 101.64 1.31999 103.24 1.31999C104.84 1.31999 105.64 2.11999 105.64 3.71999C105.64 5.31999 104.84 6.12 103.24 6.12ZM111.88 4.92C110.28 4.92 109.48 4.11999 109.48 2.51999C109.48 0.919988 110.28 0.119988 111.88 0.119988C113.48 0.119988 114.28 0.919988 114.28 2.51999C114.28 4.11999 113.48 4.92 111.88 4.92ZM120.28 6.59999C118.68 6.59999 117.88 5.79999 117.88 4.19999C117.88 2.59999 118.68 1.8 120.28 1.8C121.88 1.8 122.68 2.59999 122.68 4.19999C122.68 5.79999 121.88 6.59999 120.28 6.59999ZM127.72 9.95999C126.12 9.95999 125.32 9.15999 125.32 7.55999C125.32 5.95999 126.12 5.16 127.72 5.16C129.32 5.16 130.12 5.95999 130.12 7.55999C130.12 9.15999 129.32 9.95999 127.72 9.95999ZM24.28 133.8C22.68 133.8 21.88 133 21.88 131.4C21.88 129.8 22.68 129 24.28 129C25.88 129 26.68 129.8 26.68 131.4C26.68 133 25.88 133.8 24.28 133.8ZM24.28 142.44C22.68 142.44 21.88 141.64 21.88 140.04C21.88 138.44 22.68 137.64 24.28 137.64C25.88 137.64 26.68 138.44 26.68 140.04C26.68 141.64 25.88 142.44 24.28 142.44ZM24.28 151.32C22.68 151.32 21.88 150.52 21.88 148.92C21.88 147.32 22.68 146.52 24.28 146.52C25.88 146.52 26.68 147.32 26.68 148.92C26.68 150.52 25.88 151.32 24.28 151.32ZM24.28 159.96C22.68 159.96 21.88 159.16 21.88 157.56C21.88 155.96 22.68 155.16 24.28 155.16C25.88 155.16 26.68 155.96 26.68 157.56C26.68 159.16 25.88 159.96 24.28 159.96ZM24.28 177C22.68 177 21.88 176.2 21.88 174.6C21.88 173 22.68 172.2 24.28 172.2C25.88 172.2 26.68 173 26.68 174.6C26.68 176.2 25.88 177 24.28 177ZM24.28 58.44C22.68 58.44 21.88 57.64 21.88 56.04C21.88 54.44 22.68 53.64 24.28 53.64C25.88 53.64 26.68 54.44 26.68 56.04C26.68 57.64 25.88 58.44 24.28 58.44ZM24.28 68.52C22.68 68.52 21.88 67.72 21.88 66.12C21.88 64.52 22.68 63.72 24.28 63.72C25.88 63.72 26.68 64.52 26.68 66.12C26.68 67.72 25.88 68.52 24.28 68.52ZM24.28 77.64C22.68 77.64 21.88 76.84 21.88 75.24C21.88 73.64 22.68 72.84 24.28 72.84C25.88 72.84 26.68 73.64 26.68 75.24C26.68 76.84 25.88 77.64 24.28 77.64ZM24.28 96.84C22.68 96.84 21.88 96.04 21.88 94.44C21.88 92.84 22.68 92.04 24.28 92.04C25.88 92.04 26.68 92.84 26.68 94.44C26.68 96.04 25.88 96.84 24.28 96.84ZM24.28 105.72C22.68 105.72 21.88 104.92 21.88 103.32C21.88 101.72 22.68 100.92 24.28 100.92C25.88 100.92 26.68 101.72 26.68 103.32C26.68 104.92 25.88 105.72 24.28 105.72ZM24.28 115.32C22.68 115.32 21.88 114.52 21.88 112.92C21.88 111.32 22.68 110.52 24.28 110.52C25.88 110.52 26.68 111.32 26.68 112.92C26.68 114.52 25.88 115.32 24.28 115.32ZM24.28 124.44C22.68 124.44 21.88 123.64 21.88 122.04C21.88 120.44 22.68 119.64 24.28 119.64C25.88 119.64 26.68 120.44 26.68 122.04C26.68 123.64 25.88 124.44 24.28 124.44ZM24.28 87.24C22.68 87.24 21.88 86.44 21.88 84.84C21.88 83.24 22.68 82.44 24.28 82.44C25.88 82.44 26.68 83.24 26.68 84.84C26.68 86.44 25.88 87.24 24.28 87.24ZM16.12 72.84C14.52 72.84 13.72 72.04 13.72 70.44C13.72 68.84 14.52 68.04 16.12 68.04C17.72 68.04 18.52 68.84 18.52 70.44C18.52 72.04 17.72 72.84 16.12 72.84ZM7.24 72.84C5.64 72.84 4.84 72.04 4.84 70.44C4.84 68.84 5.64 68.04 7.24 68.04C8.84 68.04 9.64 68.84 9.64 70.44C9.64 72.04 8.84 72.84 7.24 72.84ZM24.28 168.36C22.68 168.36 21.88 167.56 21.88 165.96C21.88 164.36 22.68 163.56 24.28 163.56C25.88 163.56 26.68 164.36 26.68 165.96C26.68 167.56 25.88 168.36 24.28 168.36ZM58.36 72.84C56.76 72.84 55.96 72.04 55.96 70.44C55.96 68.84 56.76 68.04 58.36 68.04C59.96 68.04 60.76 68.84 60.76 70.44C60.76 72.04 59.96 72.84 58.36 72.84ZM49.72 72.84C48.12 72.84 47.32 72.04 47.32 70.44C47.32 68.84 48.12 68.04 49.72 68.04C51.32 68.04 52.12 68.84 52.12 70.44C52.12 72.04 51.32 72.84 49.72 72.84ZM41.08 72.84C39.48 72.84 38.68 72.04 38.68 70.44C38.68 68.84 39.48 68.04 41.08 68.04C42.68 68.04 43.48 68.84 43.48 70.44C43.48 72.04 42.68 72.84 41.08 72.84ZM32.44 72.84C30.84 72.84 30.04 72.04 30.04 70.44C30.04 68.84 30.84 68.04 32.44 68.04C34.04 68.04 34.84 68.84 34.84 70.44C34.84 72.04 34.04 72.84 32.44 72.84ZM92.68 72.84C91.08 72.84 90.28 72.04 90.28 70.44C90.28 68.84 91.08 68.04 92.68 68.04C94.28 68.04 95.08 68.84 95.08 70.44C95.08 72.04 94.28 72.84 92.68 72.84ZM101.32 72.84C99.72 72.84 98.92 72.04 98.92 70.44C98.92 68.84 99.72 68.04 101.32 68.04C102.92 68.04 103.72 68.84 103.72 70.44C103.72 72.04 102.92 72.84 101.32 72.84ZM109.96 72.84C108.36 72.84 107.56 72.04 107.56 70.44C107.56 68.84 108.36 68.04 109.96 68.04C111.56 68.04 112.36 68.84 112.36 70.44C112.36 72.04 111.56 72.84 109.96 72.84ZM118.6 72.84C117 72.84 116.2 72.04 116.2 70.44C116.2 68.84 117 68.04 118.6 68.04C120.2 68.04 121 68.84 121 70.44C121 72.04 120.2 72.84 118.6 72.84ZM30.52 30.84C28.92 30.84 28.12 30.04 28.12 28.44C28.12 26.84 28.92 26.04 30.52 26.04C32.12 26.04 32.92 26.84 32.92 28.44C32.92 30.04 32.12 30.84 30.52 30.84ZM26.92 39.72C25.32 39.72 24.52 38.92 24.52 37.32C24.52 35.72 25.32 34.92 26.92 34.92C28.52 34.92 29.32 35.72 29.32 37.32C29.32 38.92 28.52 39.72 26.92 39.72ZM24.76 48.84C23.16 48.84 22.36 48.04 22.36 46.44C22.36 44.84 23.16 44.04 24.76 44.04C26.36 44.04 27.16 44.84 27.16 46.44C27.16 48.04 26.36 48.84 24.76 48.84ZM35.8 23.4C34.2 23.4 33.4 22.6 33.4 21C33.4 19.4 34.2 18.6 35.8 18.6C37.4 18.6 38.2 19.4 38.2 21C38.2 22.6 37.4 23.4 35.8 23.4ZM42.52 18.12C40.92 18.12 40.12 17.32 40.12 15.72C40.12 14.12 40.92 13.32 42.52 13.32C44.12 13.32 44.92 14.12 44.92 15.72C44.92 17.32 44.12 18.12 42.52 18.12ZM50.44 15.72C48.84 15.72 48.04 14.92 48.04 13.32C48.04 11.72 48.84 10.92 50.44 10.92C52.04 10.92 52.84 11.72 52.84 13.32C52.84 14.92 52.04 15.72 50.44 15.72ZM59.08 15.24C57.48 15.24 56.68 14.44 56.68 12.84C56.68 11.24 57.48 10.44 59.08 10.44C60.68 10.44 61.48 11.24 61.48 12.84C61.48 14.44 60.68 15.24 59.08 15.24ZM67.48 16.44C65.88 16.44 65.08 15.64 65.08 14.04C65.08 12.44 65.88 11.64 67.48 11.64C69.08 11.64 69.88 12.44 69.88 14.04C69.88 15.64 69.08 16.44 67.48 16.44ZM74.92 18.84C73.32 18.84 72.52 18.04 72.52 16.44C72.52 14.84 73.32 14.04 74.92 14.04C76.52 14.04 77.32 14.84 77.32 16.44C77.32 18.04 76.52 18.84 74.92 18.84Z" fill="black"/>
</g>
<defs>
<filter id="filter0_d" x="0.839996" y="0.119995" width="133.28" height="184.88" filterUnits="userSpaceOnUse" color-interpolation-filters="sRGB">
<feFlood flood-opacity="0" result="BackgroundImageFix"/>
<feColorMatrix in="SourceAlpha" type="matrix" values="0 0 0 0 0 0 0 0 0 0 0 0 0 0 0 0 0 0 127 0" result="hardAlpha"/>
<feOffset dy="4"/>
<feGaussianBlur stdDeviation="2"/>
<feComposite in2="hardAlpha" operator="out"/>
<feColorMatrix type="matrix" values="0 0 0 0 0 0 0 0 0 0 0 0 0 0 0 0 0 0 0.25 0"/>
<feBlend mode="normal" in2="BackgroundImageFix" result="effect1_dropShadow"/>
<feBlend mode="normal" in="SourceGraphic" in2="effect1_dropShadow" result="shape"/>
</filter>
</defs>
</svg>
