<svg width="169" height="104" viewBox="0 0 169 104" fill="none" xmlns="http://www.w3.org/2000/svg">
<path d="M17.0703 25.5234H14.3281L3.78125 3.30469V25.5234H1.77734V0.84375H4.48438L15.0664 23.2383V0.84375H17.0703V25.5234ZM33.9102 16.9453C33.9102 15.9375 33.793 14.9648 33.5586 14.0273C33.3477 13.0664 33.0078 12.2578 32.5391 11.6016C32.0938 10.9453 31.543 10.4414 30.8867 10.0898C30.2305 9.73828 29.5508 9.5625 28.8477 9.5625C28.1445 9.5625 27.4648 9.73828 26.8086 10.0898C26.1523 10.4414 25.6016 10.9453 25.1562 11.6016C24.6875 12.2578 24.3359 13.0664 24.1016 14.0273C23.8906 14.9648 23.7852 15.9375 23.7852 16.9453C23.7852 17.9531 23.8906 18.9375 24.1016 19.8984C24.3359 20.8359 24.6875 21.6211 25.1562 22.2539C25.6016 22.9336 26.1523 23.4492 26.8086 23.8008C27.4648 24.1523 28.1445 24.3281 28.8477 24.3281C29.5508 24.3281 30.2305 24.1523 30.8867 23.8008C31.543 23.4492 32.0938 22.9336 32.5391 22.2539C33.0078 21.6211 33.3477 20.8359 33.5586 19.8984C33.793 18.9375 33.9102 17.9531 33.9102 16.9453ZM36.1602 16.9453C36.1602 18.0703 36.0195 19.1719 35.7383 20.25C35.457 21.3047 35.0586 22.207 34.543 22.957C33.957 23.8242 33.1719 24.5391 32.1875 25.1016C31.2266 25.6406 30.1133 25.9102 28.8477 25.9102C27.582 25.9102 26.457 25.6406 25.4727 25.1016C24.5117 24.5391 23.7383 23.8242 23.1523 22.957C22.6367 22.207 22.2383 21.3047 21.957 20.25C21.6758 19.1719 21.5352 18.0703 21.5352 16.9453C21.5352 15.8203 21.6758 14.7305 21.957 13.6758C22.2383 12.5977 22.6367 11.6836 23.1523 10.9336C23.7383 10.0664 24.5117 9.36328 25.4727 8.82422C26.457 8.26172 27.582 7.98047 28.8477 7.98047C30.1133 7.98047 31.2266 8.26172 32.1875 8.82422C33.1719 9.36328 33.957 10.0664 34.543 10.9336C35.0586 11.6836 35.457 12.5977 35.7383 13.6758C36.0195 14.7305 36.1602 15.8203 36.1602 16.9453ZM64.9531 16.6992C64.9531 18.1758 64.7773 19.4766 64.4258 20.6016C64.0742 21.7266 63.6289 22.6641 63.0898 23.4141C62.5273 24.1875 61.8242 24.7734 60.9805 25.1719C60.1367 25.5703 59.2812 25.7695 58.4141 25.7695C57.2188 25.7695 56.1758 25.4648 55.2852 24.8555C54.418 24.2227 53.75 23.3672 53.2812 22.2891V31.7109H51.2422V8.36719H53.2812V11.4258C54.4062 9.10547 56.0586 7.94531 58.2383 7.94531C59.293 7.94531 60.2539 8.19141 61.1211 8.68359C61.9883 9.17578 62.7031 9.82031 63.2656 10.6172C63.8047 11.4141 64.2148 12.3398 64.4961 13.3945C64.8008 14.4492 64.9531 15.5508 64.9531 16.6992ZM62.7734 16.875C62.7734 15.8672 62.6445 14.918 62.3867 14.0273C62.1523 13.1367 61.8125 12.3516 61.3672 11.6719C60.9453 11.0391 60.4414 10.5352 59.8555 10.1602C59.293 9.78516 58.6836 9.59766 58.0273 9.59766C57.3945 9.59766 56.7852 9.79688 56.1992 10.1953C55.6133 10.5703 55.1094 11.0742 54.6875 11.707C54.2656 12.3867 53.9258 13.1719 53.668 14.0625C53.4336 14.9297 53.3164 15.8672 53.3164 16.875C53.3164 17.8828 53.4336 18.832 53.668 19.7227C53.9258 20.5898 54.2656 21.3516 54.6875 22.0078C55.1094 22.6641 55.6133 23.1914 56.1992 23.5898C56.7852 23.9648 57.3945 24.1523 58.0273 24.1523C58.6836 24.1523 59.293 23.9648 59.8555 23.5898C60.4414 23.2148 60.9453 22.6992 61.3672 22.043C61.8125 21.3867 62.1523 20.6133 62.3867 19.7227C62.6445 18.832 62.7734 17.8828 62.7734 16.875ZM82.0391 25.5234H79.9648V14.2031C79.9648 12.9141 79.6484 11.8242 79.0156 10.9336C78.4766 10.1367 77.5625 9.73828 76.2734 9.73828C75.1719 9.73828 74.1992 10.2305 73.3555 11.2148C72.5352 12.1758 71.9258 13.5586 71.5273 15.3633C71.4336 15.8086 71.3633 16.2539 71.3164 16.6992C71.293 17.1445 71.2812 17.5781 71.2812 18V25.5234H69.2422V0.84375H71.2812V12.0938C71.7734 10.7578 72.4531 9.75 73.3203 9.07031C74.2578 8.32031 75.3242 7.94531 76.5195 7.94531C78.2539 7.94531 79.5781 8.41406 80.4922 9.35156C81.5234 10.3359 82.0391 11.8594 82.0391 13.9219V25.5234ZM98.7031 16.9453C98.7031 15.9375 98.5859 14.9648 98.3516 14.0273C98.1406 13.0664 97.8008 12.2578 97.332 11.6016C96.8867 10.9453 96.3359 10.4414 95.6797 10.0898C95.0234 9.73828 94.3438 9.5625 93.6406 9.5625C92.9375 9.5625 92.2578 9.73828 91.6016 10.0898C90.9453 10.4414 90.3945 10.9453 89.9492 11.6016C89.4805 12.2578 89.1289 13.0664 88.8945 14.0273C88.6836 14.9648 88.5781 15.9375 88.5781 16.9453C88.5781 17.9531 88.6836 18.9375 88.8945 19.8984C89.1289 20.8359 89.4805 21.6211 89.9492 22.2539C90.3945 22.9336 90.9453 23.4492 91.6016 23.8008C92.2578 24.1523 92.9375 24.3281 93.6406 24.3281C94.3438 24.3281 95.0234 24.1523 95.6797 23.8008C96.3359 23.4492 96.8867 22.9336 97.332 22.2539C97.8008 21.6211 98.1406 20.8359 98.3516 19.8984C98.5859 18.9375 98.7031 17.9531 98.7031 16.9453ZM100.953 16.9453C100.953 18.0703 100.812 19.1719 100.531 20.25C100.25 21.3047 99.8516 22.207 99.3359 22.957C98.75 23.8242 97.9648 24.5391 96.9805 25.1016C96.0195 25.6406 94.9062 25.9102 93.6406 25.9102C92.375 25.9102 91.25 25.6406 90.2656 25.1016C89.3047 24.5391 88.5312 23.8242 87.9453 22.957C87.4297 22.207 87.0312 21.3047 86.75 20.25C86.4688 19.1719 86.3281 18.0703 86.3281 16.9453C86.3281 15.8203 86.4688 14.7305 86.75 13.6758C87.0312 12.5977 87.4297 11.6836 87.9453 10.9336C88.5312 10.0664 89.3047 9.36328 90.2656 8.82422C91.25 8.26172 92.375 7.98047 93.6406 7.98047C94.9062 7.98047 96.0195 8.26172 96.9805 8.82422C97.9648 9.36328 98.75 10.0664 99.3359 10.9336C99.8516 11.6836 100.25 12.5977 100.531 13.6758C100.812 14.7305 100.953 15.8203 100.953 16.9453ZM113.152 9.98438H108.617V19.9336C108.617 20.4727 108.617 20.9883 108.617 21.4805C108.617 21.9727 108.723 22.4648 108.934 22.957C109.121 23.4023 109.426 23.7305 109.848 23.9414C110.27 24.1523 110.773 24.2578 111.359 24.2578C111.992 24.2578 112.566 24.2109 113.082 24.1172V25.8047C112.566 25.875 111.863 25.9102 110.973 25.9102C109.402 25.9102 108.266 25.582 107.562 24.9258C106.883 24.2461 106.543 23.1328 106.543 21.5859V9.98438H103.801V8.36719H106.543V4.14844L108.617 3.09375V8.36719H113.152V9.98438ZM128.586 16.9453C128.586 15.9375 128.469 14.9648 128.234 14.0273C128.023 13.0664 127.684 12.2578 127.215 11.6016C126.77 10.9453 126.219 10.4414 125.562 10.0898C124.906 9.73828 124.227 9.5625 123.523 9.5625C122.82 9.5625 122.141 9.73828 121.484 10.0898C120.828 10.4414 120.277 10.9453 119.832 11.6016C119.363 12.2578 119.012 13.0664 118.777 14.0273C118.566 14.9648 118.461 15.9375 118.461 16.9453C118.461 17.9531 118.566 18.9375 118.777 19.8984C119.012 20.8359 119.363 21.6211 119.832 22.2539C120.277 22.9336 120.828 23.4492 121.484 23.8008C122.141 24.1523 122.82 24.3281 123.523 24.3281C124.227 24.3281 124.906 24.1523 125.562 23.8008C126.219 23.4492 126.77 22.9336 127.215 22.2539C127.684 21.6211 128.023 20.8359 128.234 19.8984C128.469 18.9375 128.586 17.9531 128.586 16.9453ZM130.836 16.9453C130.836 18.0703 130.695 19.1719 130.414 20.25C130.133 21.3047 129.734 22.207 129.219 22.957C128.633 23.8242 127.848 24.5391 126.863 25.1016C125.902 25.6406 124.789 25.9102 123.523 25.9102C122.258 25.9102 121.133 25.6406 120.148 25.1016C119.188 24.5391 118.414 23.8242 117.828 22.957C117.312 22.207 116.914 21.3047 116.633 20.25C116.352 19.1719 116.211 18.0703 116.211 16.9453C116.211 15.8203 116.352 14.7305 116.633 13.6758C116.914 12.5977 117.312 11.6836 117.828 10.9336C118.414 10.0664 119.188 9.36328 120.148 8.82422C121.133 8.26172 122.258 7.98047 123.523 7.98047C124.789 7.98047 125.902 8.26172 126.863 8.82422C127.848 9.36328 128.633 10.0664 129.219 10.9336C129.734 11.6836 130.133 12.5977 130.414 13.6758C130.695 14.7305 130.836 15.8203 130.836 16.9453ZM15.3125 52.6992C15.3125 54.1758 15.1367 55.4766 14.7852 56.6016C14.4336 57.7266 13.9883 58.6641 13.4492 59.4141C12.8867 60.1875 12.1836 60.7734 11.3398 61.1719C10.4961 61.5703 9.64062 61.7695 8.77344 61.7695C7.57812 61.7695 6.53516 61.4648 5.64453 60.8555C4.77734 60.2227 4.10938 59.3672 3.64062 58.2891V67.7109H1.60156V44.3672H3.64062V47.4258C4.76562 45.1055 6.41797 43.9453 8.59766 43.9453C9.65234 43.9453 10.6133 44.1914 11.4805 44.6836C12.3477 45.1758 13.0625 45.8203 13.625 46.6172C14.1641 47.4141 14.5742 48.3398 14.8555 49.3945C15.1602 50.4492 15.3125 51.5508 15.3125 52.6992ZM13.1328 52.875C13.1328 51.8672 13.0039 50.918 12.7461 50.0273C12.5117 49.1367 12.1719 48.3516 11.7266 47.6719C11.3047 47.0391 10.8008 46.5352 10.2148 46.1602C9.65234 45.7852 9.04297 45.5977 8.38672 45.5977C7.75391 45.5977 7.14453 45.7969 6.55859 46.1953C5.97266 46.5703 5.46875 47.0742 5.04688 47.707C4.625 48.3867 4.28516 49.1719 4.02734 50.0625C3.79297 50.9297 3.67578 51.8672 3.67578 52.875C3.67578 53.8828 3.79297 54.832 4.02734 55.7227C4.28516 56.5898 4.625 57.3516 5.04688 58.0078C5.46875 58.6641 5.97266 59.1914 6.55859 59.5898C7.14453 59.9648 7.75391 60.1523 8.38672 60.1523C9.04297 60.1523 9.65234 59.9648 10.2148 59.5898C10.8008 59.2148 11.3047 58.6992 11.7266 58.043C12.1719 57.3867 12.5117 56.6133 12.7461 55.7227C13.0039 54.832 13.1328 53.8828 13.1328 52.875ZM28.6367 46.0898C28.0508 46.0898 27.4062 46.1836 26.7031 46.3711C26 46.5586 25.332 46.8281 24.6992 47.1797C24.0898 47.5547 23.5156 48.0938 22.9766 48.7969C22.4375 49.4766 22.0742 50.25 21.8867 51.1172C21.6992 52.1484 21.6055 53.2266 21.6055 54.3516V61.5234H19.6016V44.3672H21.6055V48.4453C22.6133 46.7578 23.668 45.6094 24.7695 45C25.9883 44.2969 27.2773 43.9453 28.6367 43.9453V46.0898ZM43.0156 52.9453C43.0156 51.9375 42.8984 50.9648 42.6641 50.0273C42.4531 49.0664 42.1133 48.2578 41.6445 47.6016C41.1992 46.9453 40.6484 46.4414 39.9922 46.0898C39.3359 45.7383 38.6562 45.5625 37.9531 45.5625C37.25 45.5625 36.5703 45.7383 35.9141 46.0898C35.2578 46.4414 34.707 46.9453 34.2617 47.6016C33.793 48.2578 33.4414 49.0664 33.207 50.0273C32.9961 50.9648 32.8906 51.9375 32.8906 52.9453C32.8906 53.9531 32.9961 54.9375 33.207 55.8984C33.4414 56.8359 33.793 57.6211 34.2617 58.2539C34.707 58.9336 35.2578 59.4492 35.9141 59.8008C36.5703 60.1523 37.25 60.3281 37.9531 60.3281C38.6562 60.3281 39.3359 60.1523 39.9922 59.8008C40.6484 59.4492 41.1992 58.9336 41.6445 58.2539C42.1133 57.6211 42.4531 56.8359 42.6641 55.8984C42.8984 54.9375 43.0156 53.9531 43.0156 52.9453ZM45.2656 52.9453C45.2656 54.0703 45.125 55.1719 44.8438 56.25C44.5625 57.3047 44.1641 58.207 43.6484 58.957C43.0625 59.8242 42.2773 60.5391 41.293 61.1016C40.332 61.6406 39.2188 61.9102 37.9531 61.9102C36.6875 61.9102 35.5625 61.6406 34.5781 61.1016C33.6172 60.5391 32.8438 59.8242 32.2578 58.957C31.7422 58.207 31.3438 57.3047 31.0625 56.25C30.7812 55.1719 30.6406 54.0703 30.6406 52.9453C30.6406 51.8203 30.7812 50.7305 31.0625 49.6758C31.3438 48.5977 31.7422 47.6836 32.2578 46.9336C32.8438 46.0664 33.6172 45.3633 34.5781 44.8242C35.5625 44.2617 36.6875 43.9805 37.9531 43.9805C39.2188 43.9805 40.332 44.2617 41.293 44.8242C42.2773 45.3633 43.0625 46.0664 43.6484 46.9336C44.1641 47.6836 44.5625 48.5977 44.8438 49.6758C45.125 50.7305 45.2656 51.8203 45.2656 52.9453ZM62.2812 44.3672L56.375 61.5234H54.3711L47.9375 44.3672H49.9766L55.3555 59.2383L60.3477 44.3672H62.2812ZM68.6094 39.7969H65.9727V36.8438H68.6094V39.7969ZM68.3984 61.5234H66.2539V44.3672H68.3984V61.5234ZM72.8281 52.7695C72.8281 51.6211 72.9688 50.5078 73.25 49.4297C73.5547 48.3516 73.9766 47.4141 74.5156 46.6172C75.0781 45.8203 75.793 45.1758 76.6602 44.6836C77.5273 44.1914 78.4883 43.9453 79.543 43.9453C81.7227 43.9453 83.375 44.9883 84.5 47.0742V36.8438H86.5391V61.5234H84.5V58.4648C84.0312 59.6602 83.3164 60.5391 82.3555 61.1016C81.418 61.6406 80.4219 61.9102 79.3672 61.9102C78.5 61.9102 77.6445 61.7109 76.8008 61.3125C75.957 60.9141 75.2539 60.3281 74.6914 59.5547C74.1523 58.8281 73.707 57.8906 73.3555 56.7422C73.0039 55.5703 72.8281 54.2461 72.8281 52.7695ZM84.4297 52.9453C84.4297 51.9375 84.3008 50.9883 84.043 50.0977C83.8086 49.207 83.4805 48.4219 83.0586 47.7422C82.6367 47.0859 82.1328 46.5703 81.5469 46.1953C80.9609 45.7969 80.3516 45.5977 79.7188 45.5977C79.0625 45.5977 78.4414 45.7969 77.8555 46.1953C77.293 46.5703 76.7891 47.0859 76.3438 47.7422C75.9219 48.4219 75.5938 49.207 75.3594 50.0977C75.125 50.9883 75.0078 51.9375 75.0078 52.9453C75.0078 53.9531 75.125 54.9023 75.3594 55.793C75.5938 56.6836 75.9219 57.457 76.3438 58.1133C76.7891 58.793 77.293 59.332 77.8555 59.7305C78.4414 60.1055 79.0625 60.293 79.7188 60.293C80.3516 60.293 80.9609 60.1055 81.5469 59.7305C82.1328 59.332 82.6367 58.793 83.0586 58.1133C83.4805 57.457 83.8086 56.6836 84.043 55.793C84.3008 54.9023 84.4297 53.9531 84.4297 52.9453ZM93.0781 51.8906H102.148C102.148 49.9688 101.891 48.4922 101.375 47.4609C101.094 46.8984 100.66 46.4414 100.074 46.0898C99.5117 45.7383 98.8672 45.5625 98.1406 45.5625C96.6875 45.5625 95.4805 46.1836 94.5195 47.4258C93.6523 48.5273 93.1719 50.0156 93.0781 51.8906ZM93.1133 53.5078C93.1367 53.7656 93.1602 54 93.1836 54.2109C93.2539 54.7734 93.3828 55.3477 93.5703 55.9336C93.8047 56.6133 94.1445 57.2695 94.5898 57.9023C95.0352 58.5117 95.6562 59.0508 96.4531 59.5195C96.7344 59.6836 97.1445 59.8477 97.6836 60.0117C98.2461 60.1758 98.8906 60.2578 99.6172 60.2578C100.18 60.2578 100.859 60.1758 101.656 60.0117C102.477 59.8477 103.191 59.5898 103.801 59.2383V60.75C102.98 61.2422 102.055 61.582 101.023 61.7695C100.016 61.957 98.9844 61.9922 97.9297 61.875C97.0156 61.7812 96.125 61.5234 95.2578 61.1016C94.3906 60.6797 93.6992 60.1641 93.1836 59.5547C92.5039 58.8047 91.9414 57.8438 91.4961 56.6719C91.0508 55.5 90.8281 54.1289 90.8281 52.5586C90.8281 51.2695 90.9922 50.1094 91.3203 49.0781C91.6484 48.0234 92.1172 47.1211 92.7266 46.3711C93.3359 45.6211 94.0859 45.0352 94.9766 44.6133C95.8906 44.168 96.9453 43.9453 98.1406 43.9453C99.1016 43.9453 100.016 44.1562 100.883 44.5781C101.773 44.9766 102.453 45.5039 102.922 46.1602C103.836 47.4258 104.293 49.2773 104.293 51.7148V53.5078H93.1133ZM107.809 52.7695C107.809 51.6211 107.949 50.5078 108.23 49.4297C108.535 48.3516 108.957 47.4141 109.496 46.6172C110.059 45.8203 110.773 45.1758 111.641 44.6836C112.508 44.1914 113.469 43.9453 114.523 43.9453C116.703 43.9453 118.355 44.9883 119.48 47.0742V36.8438H121.52V61.5234H119.48V58.4648C119.012 59.6602 118.297 60.5391 117.336 61.1016C116.398 61.6406 115.402 61.9102 114.348 61.9102C113.48 61.9102 112.625 61.7109 111.781 61.3125C110.938 60.9141 110.234 60.3281 109.672 59.5547C109.133 58.8281 108.688 57.8906 108.336 56.7422C107.984 55.5703 107.809 54.2461 107.809 52.7695ZM119.41 52.9453C119.41 51.9375 119.281 50.9883 119.023 50.0977C118.789 49.207 118.461 48.4219 118.039 47.7422C117.617 47.0859 117.113 46.5703 116.527 46.1953C115.941 45.7969 115.332 45.5977 114.699 45.5977C114.043 45.5977 113.422 45.7969 112.836 46.1953C112.273 46.5703 111.77 47.0859 111.324 47.7422C110.902 48.4219 110.574 49.207 110.34 50.0977C110.105 50.9883 109.988 51.9375 109.988 52.9453C109.988 53.9531 110.105 54.9023 110.34 55.793C110.574 56.6836 110.902 57.457 111.324 58.1133C111.77 58.793 112.273 59.332 112.836 59.7305C113.422 60.1055 114.043 60.293 114.699 60.293C115.332 60.293 115.941 60.1055 116.527 59.7305C117.113 59.332 117.617 58.793 118.039 58.1133C118.461 57.457 118.789 56.6836 119.023 55.793C119.281 54.9023 119.41 53.9531 119.41 52.9453ZM149.047 52.9453C149.047 51.9609 148.941 51.0117 148.73 50.0977C148.52 49.1602 148.215 48.3516 147.816 47.6719C147.371 47.0156 146.832 46.5117 146.199 46.1602C145.566 45.7852 144.934 45.5977 144.301 45.5977C143.691 45.5977 143.07 45.8086 142.438 46.2305C141.828 46.6289 141.324 47.1445 140.926 47.7773C140.527 48.457 140.199 49.2422 139.941 50.1328C139.707 51.0234 139.59 51.9609 139.59 52.9453C139.59 53.9297 139.695 54.8906 139.906 55.8281C140.141 56.7422 140.457 57.5273 140.855 58.1836C141.254 58.8867 141.77 59.4141 142.402 59.7656C143.059 60.1172 143.691 60.293 144.301 60.293C144.934 60.293 145.566 60.1172 146.199 59.7656C146.855 59.4141 147.395 58.8867 147.816 58.1836C148.215 57.5273 148.52 56.7422 148.73 55.8281C148.941 54.8906 149.047 53.9297 149.047 52.9453ZM144.512 43.9453C145.566 43.9453 146.539 44.1797 147.43 44.6484C148.344 45.1172 149.07 45.75 149.609 46.5469C150.148 47.3438 150.547 48.293 150.805 49.3945C151.086 50.4961 151.227 51.6211 151.227 52.7695C151.227 54.2461 151.062 55.582 150.734 56.7773C150.406 57.9492 149.973 58.8984 149.434 59.625C148.871 60.3984 148.145 60.9727 147.254 61.3477C146.387 61.7227 145.414 61.9102 144.336 61.9102C143.234 61.9102 142.25 61.7227 141.383 61.3477C140.539 60.9727 139.848 60.3984 139.309 59.625C138.746 58.8984 138.301 57.9492 137.973 56.7773C137.668 55.582 137.516 54.2461 137.516 52.7695V36.8438H139.555V47.0742C140.68 44.9883 142.332 43.9453 144.512 43.9453ZM165.922 44.3672H168.031L160.086 67.7109H158.012L160.367 60.75L154.18 44.3672H156.289L161.316 58.043L165.922 44.3672ZM13.4492 97.5234H11.3398V94.7812C10.6602 95.7188 9.86328 96.4336 8.94922 96.9258C8.41016 97.2539 7.80078 97.5 7.12109 97.6641C6.46484 97.8281 5.70312 97.9102 4.83594 97.9102C4.36719 97.9102 3.86328 97.8047 3.32422 97.5938C2.78516 97.3828 2.32812 97.1016 1.95312 96.75C1.57812 96.375 1.27344 95.918 1.03906 95.3789C0.804688 94.8398 0.6875 94.2305 0.6875 93.5508C0.6875 92.3086 1.01562 91.2305 1.67188 90.3164C2.35156 89.4023 3.17188 88.7695 4.13281 88.418C4.78906 88.1836 5.49219 88.0078 6.24219 87.8906C7.01562 87.7734 7.70703 87.7148 8.31641 87.7148H11.3398V85.8164C11.3398 85.4648 11.293 85.043 11.1992 84.5508C11.1289 84.0586 10.9531 83.6016 10.6719 83.1797C10.3672 82.7344 9.92188 82.3594 9.33594 82.0547C8.77344 81.7266 8.10547 81.5625 7.33203 81.5625C6.32422 81.5625 5.44531 81.8555 4.69531 82.4414C3.94531 83.0039 3.57031 83.6719 3.57031 84.4453H1.10938C1.10938 84.0703 1.22656 83.6016 1.46094 83.0391C1.71875 82.4766 2.08203 81.9727 2.55078 81.5273C3.06641 81.0586 3.73438 80.6836 4.55469 80.4023C5.39844 80.0977 6.32422 79.9453 7.33203 79.9453C9.37109 79.9453 10.8945 80.4961 11.9023 81.5977C12.9336 82.6758 13.4492 84.0352 13.4492 85.6758V97.5234ZM11.3398 91.0547V89.1562C10.6367 89.1562 9.93359 89.168 9.23047 89.1914C8.55078 89.1914 7.71875 89.2734 6.73438 89.4375C5.79688 89.5781 4.94141 89.9414 4.16797 90.5273C3.30078 91.2539 2.86719 92.1445 2.86719 93.1992C2.86719 94.2773 3.16016 95.0625 3.74609 95.5547C4.35547 96.0469 5.09375 96.293 5.96094 96.293C6.28906 96.293 6.73438 96.2109 7.29688 96.0469C7.85938 95.8828 8.375 95.6719 8.84375 95.4141C9.75781 94.8281 10.4609 94.0781 10.9531 93.1641C11.2109 92.6484 11.3398 91.9453 11.3398 91.0547ZM32.293 88.6992C32.293 90.1758 32.1172 91.4766 31.7656 92.6016C31.4141 93.7266 30.9688 94.6641 30.4297 95.4141C29.8672 96.1875 29.1641 96.7734 28.3203 97.1719C27.4766 97.5703 26.6211 97.7695 25.7539 97.7695C24.5586 97.7695 23.5156 97.4648 22.625 96.8555C21.7578 96.2227 21.0898 95.3672 20.6211 94.2891V103.711H18.582V80.3672H20.6211V83.4258C21.7461 81.1055 23.3984 79.9453 25.5781 79.9453C26.6328 79.9453 27.5938 80.1914 28.4609 80.6836C29.3281 81.1758 30.043 81.8203 30.6055 82.6172C31.1445 83.4141 31.5547 84.3398 31.8359 85.3945C32.1406 86.4492 32.293 87.5508 32.293 88.6992ZM30.1133 88.875C30.1133 87.8672 29.9844 86.918 29.7266 86.0273C29.4922 85.1367 29.1523 84.3516 28.707 83.6719C28.2852 83.0391 27.7812 82.5352 27.1953 82.1602C26.6328 81.7852 26.0234 81.5977 25.3672 81.5977C24.7344 81.5977 24.125 81.7969 23.5391 82.1953C22.9531 82.5703 22.4492 83.0742 22.0273 83.707C21.6055 84.3867 21.2656 85.1719 21.0078 86.0625C20.7734 86.9297 20.6562 87.8672 20.6562 88.875C20.6562 89.8828 20.7734 90.832 21.0078 91.7227C21.2656 92.5898 21.6055 93.3516 22.0273 94.0078C22.4492 94.6641 22.9531 95.1914 23.5391 95.5898C24.125 95.9648 24.7344 96.1523 25.3672 96.1523C26.0234 96.1523 26.6328 95.9648 27.1953 95.5898C27.7812 95.2148 28.2852 94.6992 28.707 94.043C29.1523 93.3867 29.4922 92.6133 29.7266 91.7227C29.9844 90.832 30.1133 89.8828 30.1133 88.875ZM39.0781 75.7969H36.4414V72.8438H39.0781V75.7969ZM38.8672 97.5234H36.7227V80.3672H38.8672V97.5234Z" fill="black"/>
</svg>
